<svg xmlns="http://www.w3.org/2000/svg" width="495.966" height="495.966" viewBox="0 0 824 824">
  <defs>
    <style>
      .cls-1 {
        fill-rule: evenodd;
      }
    </style>
  </defs>
  <path id="Color_Fill_1" data-name="Color Fill 1" class="cls-1" d="M329,25l11,1,3,4c1.586,2.369,1.813,3.621,2,8-1.622,3.2-1.849,4.189-5,6-2.832,2.56-5.273,3.012-11,3-3.2-1.622-4.189-1.849-6-5a9.441,9.441,0,0,1-1-10Zm59,26q0.5,3.5,1,7c43.17-30.493,55.841,18.4,49,62H419c0.372-16.618,2.084-39.473-4-50-6.8-2.415-11.492-2.859-19-1-8.208,11.08-8.3,31.04-8,51l-20-1q1-34.5,2-69h1Zm-47,4c4.01,0.578,2.991-.046,5,2q5.5,33,11,66l-19,3c-1.291-11.857-13.562-62.416-9-68Zm141,6c26.777,1.51,48.117,21.255,36,51L468,98c0.635,23.478,21.208,15.87,35,18l6,13h-2c-22.373,20.421-69.539-12.723-56-46C456.89,68.525,466.911,66.716,482,61ZM301,62c8.293,5.2,10.216,23.294,14,33q6,17,12,34c4.887,30.586-33.847,42.211-62,38l3-16c16.237,2.764,33.661-.6,38-13,2.143-4.811.219-10.776-1-15l-2,1c-10.216,26.6-51.861,15.732-60-5-12.05-30.694,19.167-51.364,45-43q-1-4-2-8ZM481,77c-4.385,3.044-7.04,4.5-10,9v1h2l30,9c0.206-10.779-3.488-15.135-11-18ZM276,88c-8.386,4.975-14.8,6.56-15,20,5.328,15.507,29.138,20.114,35,2q0.5-4.5,1-9c-2.272-5.03-3.941-8.63-9-11Zm273,3c31.347-1.4,64.588,33.749,37,57l-46-23v6c4.709,12.567,13.78,18.96,30,17l3,15-1,1C518.21,169.112,504.393,115.971,549,91Zm5,16-7,6q0.5,1,1,2l28,15a33.038,33.038,0,0,0-1-15C568.608,110.005,566.33,106.876,554,107Zm-350,1c26.417,0.055,40.607,28.78,50,46l-2,3-13,9-2-1c-4.639-11.943-19.205-35.207-34-37-7.92,4.937-10.589,6.3-14,16,5.262,16.343,16.118,25.453,24,39l-3,4-14,7c-5.849-13.171-40.2-48.429-35-58l13-7,4,5C180.79,117.845,191.348,114.4,204,108Zm416,18,14,13-4,6c11.3-.282,17.382,2.772,23,8l-11,14-4-4c-5.338-2.073-7.85-3.839-16-4-12.489,6.467-22.918,21.017-31,32-7.952-3.845-18.358-11.318-10-18ZM124,142l13,10v1l-30,35,3,4,11,9,6-5,21-27,4,4,9,6-3,3-23,29,15,13,30-36,14,10-44,53-3-3L81,194l5-5Zm520,80,7,1c4.472,4.111,7.326,5.712,8,14q-2.5,4-5,8c-3.765,1.191-7.705,2.858-12,1l-8-7c-0.061-8.382,1.816-10.451,5-15Zm102,33h4q11,31.5,22,63l-16,5q-7.5-21.5-15-43l-22,7,13,40c-5.392,1.746-11.608,5.442-15,3l-15-36-30,10c-1.448-4.787-8.115-16.973-5-19ZM113,280c7.185,0.013,10.479,1.346,13,6,2.308,2.557,2.71,4.054,3,9-3.878,6.212-4.942,9.68-15,10-5.118-2.266-6.617-4.281-10-8v-7C106.591,284.864,108.881,283.4,113,280ZM66,334l15,2-7,51h3c13.661-6.395,15.2-21.155,9-36l12-8,3,2c13.335,31.93-6.623,75.855-46,59-21.222-9.084-27.346-47.937-7-63Zm698,79-68,7q-1-9.5-2-19l7-1c-32.973-42.539,11.229-56.774,56-56,0.835,5.97,3.075,15.671,0,19-15.915,5.777-40.984-1.657-48,13-1.52,4.809-.831,9.85,2,13,6.692,13.579,34.792,5.307,51,4Q763,403,764,413ZM61,353l-8,6c-2.268,7.217-2.939,12.113-1,20l10,7v-2l5-31H61ZM50,413c-0.207,9.959,2.194,13.58,6,19,13.169,3.673,32.29-1.777,47,2q0.5,8.5,1,17l-1,2-68,4-1-19,8-1c-5.653-6.416-9.866-10.631-10-23Zm738,25q-0.5,10-1,20l-95-8v-4q1-8,2-16ZM103,462l6,18-7,2,1,2c12.417,4.868,15.269,22.693,11,38-6.815,5.382-8.844,9.115-22,9-15.506-7.614-16.331-21.63-22-39H69l-8,8c-4.918,18.136,13.858,22.36,6,34l-6,4H59c-13.894-20.914-26.793-55.364,7-66Zm587,2,93,18v3l-4,17-93-19v-1ZM87,487l-5,2c0.494,8.5,3.023,18.671,9,22h8l1-3c3.945-6.973-1.233-13.979-5-19Zm605,4,11,11-8,8c-3.375,8.149-8.826,14.15-7,25l2,1,4-1c15.622-11.545,14.594-44.135,45-23,9.2,22.744-2.213,41.009-13,55l-11-11,5-5c3.466-8.05,8.917-13.893,7-25l-4-2-3,1c-9.681,16.911-21.089,40.2-44,24C666.469,525.494,678.7,503.627,692,491ZM124,542h3l10,14c-3.427,13.83-18.507,24.813-26,36v1l44-8,9,16-46,57v-2l-9-14,30-38L91,614l-8-14,29-37v-1l-47,9-9-15Zm542,18c17.452,2.374,26.028,13.141,40,19l5-9,13,8q-2.5,5-5,10l14,7q-0.5,1.5-1,3l-8,14-16-8q-4,7.5-8,15l-13-7q4-7.5,8-15l-29-17c-6.059,2.6-8.315,4.991-9,13l-15-3v-1C644.385,571.605,652.411,566.382,666,560Zm-27,36c12.14-.126,18.684,4.383,22,13,4.8,16.449-11.084,32.271-20,39l2,3,6,2c15.013-5.339,14.823-13.116,22-26l14,4c-2.232,18.164-21.709,48.647-46,40-11.416-4.064-19.778-15.339-28-23l-13-11,8-9,4-5,6,4C614.414,609.306,626.672,602.985,639,596Zm-2,18c-8.681,5.343-18.468,18.385-5,26a46.846,46.846,0,0,0,14-17q-0.5-3-1-6Zm-464,1c48.838,12.21,10.609,46.982-2,64,6.963,8.632,6.252,10.98-4,18-6.27-5.029-5.342-7.4-12-3l-7,8-14-13,11-12-12-12,7-7,3-4,14,11,21-25c-0.872-7.31-3.83-9.191-10-11Q170.5,622,173,615Zm410,37c57.253-.342,43.134,86.5-13,71l-1-1,7-16c10.482,3.108,20.093,1.05,24-8q1-6,2-12c-2.824-6.2-5.7-11.219-12-14-12.937-8.1-24.866,5.437-25,18l-17,2C544.8,666.106,564.374,659.762,583,652Zm-360,4,17,11-2,2-27,40c3.967,3.76,8.013,4.493,6,9l-6,10-10-5c-10.346,19.62-38.015,13.622-47-3l1-3,10-7c4.219,3.863,6.047,6.415,12,9l9-7-2-3-12-8,9-12,2,2,12,7Zm311,24c6.6,2.871,34.616,75.783,37,88l-18,7-19-49-2,1-16,35-21,7v-1q7.5-17.5,15-35l-42-26v-1l21-8,31,17,5-12-6-17Zm-277,3c48.126-1.962,64.993,54.4,26,70C239.47,770.413,203,709.17,257,683Zm5,17c-6.542,4.88-20.45,18.354-10,30,8.806,19.217,32.873,2.429,33-15C281.218,704.763,276.644,699.515,262,700Zm76,5c18.854,1.111,37.406,6.417,46,18l-9,13-2-2c-12.869-6-28.233-17.577-44-7,0.166,6.9,1.362,7.27,4,11,15.529,5.254,50.007,16.243,40,43-9.132,24.417-55.574,19.086-70,3l9-14c6.315,4.727,31.746,19.851,40,6v-7c-9.131-12.449-32.411-11.924-41-25C295.31,720.113,323.121,710.68,338,705Zm84,5,10,1,6,6v10l-3,5c-3.848,1.221-8.511,2.973-13,1l-7-6q0.5-5,1-10Z"/>
</svg>
